<svg width="49" height="49" viewBox="0 0 49 49" fill="none" xmlns="http://www.w3.org/2000/svg">
<g clip-path="url(#clip0)">
<path d="M47.2115 37.2307C48.0358 35.3351 47.4339 34.0643 46.3179 33.5461C44.0726 32.5037 43.0669 34.9363 42.3429 35.6604C41.3239 36.6792 41.2875 39.224 40.8497 39.6616C40.181 40.3304 40.1758 41.0439 40.2891 41.5248C40.4975 42.4085 41.2195 43.1305 41.7936 43.7134C42.433 44.3628 43.0369 44.9761 43.9255 44.9797C44.9427 44.9797 45.9762 44.0888 46.6628 43.3377C46.9308 43.0453 46.9109 42.5911 46.6185 42.3233C46.3262 42.0555 45.872 42.0752 45.6041 42.3676C45.5732 42.4013 45.5415 42.435 45.5079 42.4685C44.3427 43.6338 43.9213 43.5464 43.9311 43.5437C43.5848 43.5423 43.1172 43.0039 42.5818 42.4686C41.3278 41.2145 41.6907 40.8515 41.8653 40.6772C42.7365 39.8057 42.71 37.324 43.3583 36.6758C43.6127 36.4215 43.8349 36.1141 44.0497 35.8167C44.7907 34.7911 45.0811 34.5551 45.7133 34.8487C46.3791 35.1578 46.1795 36.0034 45.8948 36.6582C45.4367 37.7117 46.0438 38.9323 46.209 40.1731C46.2614 40.5661 46.6225 40.8425 47.0156 40.79C47.4086 40.7377 47.6848 40.3767 47.6325 39.9835C47.4833 38.8655 47.0108 37.6927 47.2115 37.2307Z" fill="#FEECB3"/>
<path d="M40.3436 29.3602C40.3436 27.8216 43.9004 24.3545 46.0256 22.2831C47.1003 21.2354 48.6466 19.9962 48.1622 18.6247C47.7465 17.4468 46.1161 17.2146 45.7935 17.1801C45.7216 17.1724 45.828 17.1774 43.4078 17.176C42.6785 17.176 42.4456 16.6526 42.4083 16.5531L40.8317 12.238C40.6956 11.8655 40.2833 11.6738 39.9109 11.8099C39.5384 11.946 39.3468 12.3583 39.4828 12.7307C39.7757 13.5322 38.6971 10.5802 41.0615 17.051C41.331 17.771 42.1073 18.6119 43.4078 18.6119H45.6757C46.1363 18.6696 46.737 18.9009 46.8081 19.1026C47.1025 19.9366 38.9076 26.031 38.9076 29.3601C38.9076 31.4966 39.3546 34.9459 37.0873 37.2132C34.5612 39.7395 32.3449 45.4366 29.9035 46.4981C28.4712 47.1207 27.6688 47.6037 27.2123 47.5673C26.1494 47.4842 22.0693 42.5909 22.0693 39.1541C22.0693 38.119 22.2132 36.2229 22.2604 34.5905C22.2719 34.194 21.9598 33.8635 21.5634 33.852C21.1667 33.8409 20.8364 34.1526 20.825 34.5489C20.7756 36.2613 20.6335 38.006 20.6335 39.1541C20.6335 42.2641 23.1878 45.9473 24.9047 47.6643C26.6367 49.3961 27.3704 49.2532 29.3767 48.3153C31.4534 47.3448 32.0599 47.4198 35.2455 42.2589C36.1756 40.7522 37.1372 39.1943 38.103 38.2285C40.7467 35.5849 40.3436 31.9524 40.3436 29.3602Z" fill="#FEECB3"/>
<circle r="2" transform="matrix(1 0 0 -1 23 21)" fill="#FF2D3C"/>
<path d="M21.5558 32.4069C21.9511 32.3759 22.2465 32.0301 22.2153 31.635C22.074 29.8384 21.6951 28.6887 21.023 28.0164C19.4649 26.4584 19.4201 24.5025 17.9175 23C16.2972 21.3797 14.9802 20.8357 11.8783 22.1283C9.31967 23.1944 7.17239 22.885 5.49582 21.2084C3.56001 19.2726 0.898262 13.8024 2.86815 11.8326C5.43321 9.2673 7.85602 7.88722 7.85602 5.47217C7.85602 3.88502 10.2075 2.60699 12.1544 2.60699C14.3162 2.60699 18.2001 1.14085 18.9515 1.46059C19.7193 2.26302 21.0645 5.35404 23.7401 5.35404C25.0422 5.35404 25.9325 5.20384 26.7181 5.07134C29.2761 4.63978 28.5098 4.91252 35.9321 6.07558C36.2221 6.11875 37.1404 6.32037 37.447 7.15908L38.4934 10.0231C38.6296 10.3956 39.0416 10.5874 39.4143 10.4511C39.7868 10.3151 39.9783 9.90278 39.8423 9.53038L38.7958 6.66625C38.3574 5.46672 37.2052 4.78137 36.1087 4.6505C28.7121 3.48965 29.323 3.17583 26.4794 3.65536C25.7137 3.7845 24.9219 3.91805 23.7401 3.91805C21.9161 3.91805 20.8479 1.32551 19.9479 0.425722C18.6644 -0.858053 14.7245 1.1709 12.1544 1.1709C9.52186 1.1709 6.42003 2.90041 6.42003 5.47208C6.42003 7.10805 4.26499 8.40466 1.85272 10.8169C-0.99265 13.6623 2.29596 20.039 4.48039 22.2235C6.57808 24.3213 9.32714 24.7465 12.4306 23.4535C15.0677 22.3546 15.7773 22.8904 16.9021 24.0151C18.1286 25.2417 18.2382 27.2624 20.0075 29.0315C20.286 29.3101 20.6469 30.0074 20.7837 31.7472C20.8148 32.1421 21.1595 32.438 21.5558 32.4069Z" fill="#FEECB3"/>
</g>
<defs>
<clipPath id="clip0">
<rect width="49" height="49" fill="white"/>
</clipPath>
</defs>
</svg>

