<svg width="50" height="50" viewBox="0 0 50 50" fill="none" xmlns="http://www.w3.org/2000/svg">
<path d="M25 35.6836C22.4115 35.6836 20.3125 33.5849 20.3125 30.9961C20.3125 28.4076 22.4115 26.3086 25 26.3086C27.5885 26.3086 29.6875 28.4076 29.6875 30.9961C29.6848 33.584 27.5879 35.6808 25 35.6836ZM25 27.8711C23.2742 27.8711 21.875 29.2703 21.875 30.9961C21.875 32.7219 23.2742 34.1211 25 34.1211C26.7258 34.1211 28.125 32.7219 28.125 30.9961C28.125 29.2703 26.7258 27.8711 25 27.8711Z" fill="#FEECB3"/>
<path d="M10.9375 12.2461C8.349 12.2461 6.25 10.1474 6.25 7.55859C6.25 4.97009 8.349 2.87109 10.9375 2.87109C13.526 2.87109 15.625 4.97009 15.625 7.55859C15.6223 10.1465 13.5254 12.2433 10.9375 12.2461ZM10.9375 4.43359C9.21173 4.43359 7.8125 5.83282 7.8125 7.55859C7.8125 9.28436 9.21173 10.6836 10.9375 10.6836C12.6633 10.6836 14.0625 9.28436 14.0625 7.55859C14.0625 5.83282 12.6633 4.43359 10.9375 4.43359Z" fill="#FEECB3"/>
<path d="M39.0625 12.2461C36.474 12.2461 34.375 10.1474 34.375 7.55859C34.375 4.97009 36.474 2.87109 39.0625 2.87109C41.651 2.87109 43.75 4.97009 43.75 7.55859C43.7473 10.1465 41.6504 12.2433 39.0625 12.2461ZM39.0625 4.43359C37.3367 4.43359 35.9375 5.83282 35.9375 7.55859C35.9375 9.28436 37.3367 10.6836 39.0625 10.6836C40.7883 10.6836 42.1875 9.28436 42.1875 7.55859C42.1875 5.83282 40.7883 4.43359 39.0625 4.43359Z" fill="#FEECB3"/>
<path d="M13.642 40.0265C8.51196 36.5856 5.23743 30.9872 4.75311 24.8287L6.31104 24.7036C6.75842 30.3881 9.78088 35.5551 14.5166 38.7304L13.642 40.0265Z" fill="#FF2D3C"/>
<path d="M35.9985 40.2631L35.1517 38.9508C40.0354 35.7858 43.1842 30.5441 43.6853 24.7461L45.2429 24.8752C44.7003 31.156 41.2888 36.8344 35.9985 40.2631Z" fill="#FF2D3C"/>
<path d="M17.5073 5.99093L16.882 4.55874C21.9873 2.34041 27.7777 2.30776 32.9077 4.4681L32.2992 5.90731C27.5641 3.91359 22.2198 3.94411 17.5079 5.99093H17.5073Z" fill="#FF2D3C"/>
<path d="M14.8438 12.2461H7.03125C4.01245 12.2495 1.56586 14.696 1.5625 17.7148V21.387L3.72803 22.175C8.38593 23.8657 13.4891 23.8657 18.147 22.175L20.3125 21.387V17.7148C20.3091 14.696 17.8625 12.2495 14.8438 12.2461ZM18.75 20.293L17.6123 20.7065C17.215 20.8508 16.8103 20.968 16.4062 21.0858V16.1523H14.8438V21.4703C12.2662 21.9958 9.60876 21.9958 7.03125 21.4703V16.1523H5.46875V21.0858C5.0647 20.968 4.66003 20.8517 4.2627 20.7065L3.125 20.293V17.7148C3.12775 15.5585 4.87488 13.8113 7.03125 13.8086H14.8438C17.0001 13.8113 18.7473 15.5585 18.75 17.7148V20.293Z" fill="#FEECB3"/>
<path d="M42.9688 12.2461H35.1562C32.1375 12.2495 29.6909 14.696 29.6875 17.7148V21.387L31.853 22.175C36.5109 23.8657 41.6141 23.8657 46.272 22.175L48.4375 21.387V17.7148C48.4341 14.696 45.9875 12.2495 42.9688 12.2461ZM46.875 20.293L45.7373 20.7065C45.34 20.8508 44.9353 20.968 44.5312 21.0858V16.1523H42.9688V21.4703C40.3912 21.9958 37.7338 21.9958 35.1562 21.4703V16.1523H33.5938V21.0858C33.1897 20.968 32.785 20.8517 32.3877 20.7065L31.25 20.293V17.7148C31.2527 15.5585 32.9999 13.8113 35.1562 13.8086H42.9688C45.1251 13.8113 46.8723 15.5585 46.875 17.7148V20.293Z" fill="#FEECB3"/>
<path d="M28.9062 35.6836H21.0938C18.075 35.687 15.6284 38.1335 15.625 41.1523V44.8245L17.7905 45.6125C22.4484 47.3032 27.5516 47.3032 32.2095 45.6125L34.375 44.8245V41.1523C34.3716 38.1335 31.925 35.687 28.9062 35.6836ZM32.8125 43.7305L31.6748 44.144C31.2775 44.2883 30.8728 44.4055 30.4688 44.5233V39.5898H28.9062V44.9078C26.3287 45.4333 23.6713 45.4333 21.0938 44.9078V39.5898H19.5312V44.5233C19.1272 44.4055 18.7225 44.2892 18.3252 44.144L17.1875 43.7305V41.1523C17.1902 38.996 18.9374 37.2488 21.0938 37.2461H28.9062C31.0626 37.2488 32.8098 38.996 32.8125 41.1523V43.7305Z" fill="#FEECB3"/>
</svg>
